<svg xmlns="http://www.w3.org/2000/svg" viewBox="0 0 512 512" role="img" aria-label="NoTVerse">
  <defs>
    <linearGradient id="neon" x1="0" y1="0" x2="1" y2="1">
      <stop offset="0" stop-color="#ff4dff"/>
      <stop offset=".43" stop-color="#8b5cff"/>
      <stop offset="1" stop-color="#24c8ff"/>
    </linearGradient>
    <linearGradient id="paper" x1="0" y1="0" x2="1" y2="1">
      <stop offset="0" stop-color="#ffffff"/>
      <stop offset=".62" stop-color="#ece7ff"/>
      <stop offset="1" stop-color="#c9c0ff"/>
    </linearGradient>
    <linearGradient id="edge" x1="0" y1="0" x2="0" y2="1">
      <stop offset="0" stop-color="#ad76ff"/>
      <stop offset="1" stop-color="#405cff"/>
    </linearGradient>
    <radialGradient id="ghost" cx=".44" cy=".25" r=".9">
      <stop offset="0" stop-color="#181329"/>
      <stop offset="1" stop-color="#03030b"/>
    </radialGradient>
    <filter id="glow" x="-80%" y="-80%" width="260%" height="260%">
      <feGaussianBlur stdDeviation="7" result="blur"/>
      <feMerge><feMergeNode in="blur"/><feMergeNode in="SourceGraphic"/></feMerge>
    </filter>
  </defs>

  <rect width="512" height="512" rx="88" fill="#030308"/>
  <rect x="10" y="10" width="492" height="492" rx="80" fill="none" stroke="url(#neon)" stroke-width="8" filter="url(#glow)"/>
  <rect x="22" y="22" width="468" height="468" rx="70" fill="none" stroke="#5e3bcf" stroke-opacity=".72" stroke-width="3"/>

  <g transform="translate(78 66) rotate(-4 170 190)">
    <rect x="12" y="30" width="300" height="348" rx="46" fill="#13102b" stroke="#456bff" stroke-width="10"/>
    <rect x="0" y="18" width="300" height="348" rx="46" fill="#29204b" stroke="url(#neon)" stroke-width="8"/>
    <path d="M31 45Q31 26 55 26H255Q278 26 278 50V288Q278 319 252 337L224 357H55Q31 357 31 333Z" fill="url(#paper)" stroke="#9c7cff" stroke-width="7"/>
    <path d="M224 357V314Q224 292 247 292H278" fill="#b7adf5" stroke="#9c7cff" stroke-width="6"/>

    <g fill="none" stroke="url(#edge)" stroke-width="16" stroke-linecap="round" filter="url(#glow)">
      <path d="M84 51C72 18 75-5 96-14C119-23 135-3 132 33L128 72"/>
      <path d="M153 45C142 9 149-17 171-22C193-27 206-7 202 28L198 70"/>
      <path d="M223 42C214 7 224-17 246-18C268-19 279 2 273 37L268 75"/>
    </g>
    <g fill="#090917" stroke="#c6b9ff" stroke-width="3">
      <ellipse cx="104" cy="70" rx="17" ry="12"/>
      <ellipse cx="175" cy="67" rx="17" ry="12"/>
      <ellipse cx="245" cy="69" rx="17" ry="12"/>
    </g>

    <line x1="70" y1="130" x2="246" y2="130" stroke="#a996ef" stroke-width="6" stroke-linecap="round" opacity=".7"/>
    <text x="153" y="214" text-anchor="middle" font-family="Arial,Helvetica,sans-serif" font-size="54" font-weight="600" fill="#5d45d8">NoTVerse</text>
    <line x1="75" y1="254" x2="242" y2="254" stroke="#9e8ae8" stroke-width="6" stroke-linecap="round" opacity=".65"/>
    <line x1="93" y1="298" x2="221" y2="298" stroke="#9e8ae8" stroke-width="6" stroke-linecap="round" opacity=".5"/>
  </g>

  <g transform="translate(272 244)">
    <path d="M110 10C53 10 17 49 17 105V190C17 204 7 219-4 229C17 234 36 228 51 216C65 232 88 238 106 222C120 238 145 238 158 220C173 236 197 232 207 212C224 218 242 207 246 189V106C246 49 207 10 150 10Z" fill="url(#ghost)" stroke="url(#neon)" stroke-width="10" filter="url(#glow)"/>
    <path d="M18 111C30 52 62 24 112 19" fill="none" stroke="#b748ff" stroke-width="8" stroke-linecap="round" opacity=".75"/>
    <g fill="none" stroke="#f7f5ff" stroke-width="10" stroke-linecap="round" stroke-linejoin="round" filter="url(#glow)">
      <path d="M53 99H105C116 99 120 106 117 118L111 141C108 152 101 157 89 157H72C60 157 54 151 52 139L47 116C45 106 47 99 53 99Z"/>
      <path d="M141 99H193C202 99 205 106 203 116L198 139C196 151 190 157 178 157H160C148 157 141 152 138 141L132 118C130 107 134 99 141 99Z"/>
      <path d="M116 113C123 108 128 108 135 113"/>
      <path d="M47 108L30 103"/>
      <path d="M203 108L222 103"/>
    </g>
    <path d="M70 126L102 111M156 126L188 111" stroke="#5062ff" stroke-width="6" stroke-linecap="round" opacity=".65"/>
  </g>
</svg>
